<svg width="64" height="39" viewBox="0 0 64 39" fill="none" xmlns="http://www.w3.org/2000/svg">
<g clip-path="url(#clip0_4141_646)">
<mask id="mask0_4141_646" style="mask-type:luminance" maskUnits="userSpaceOnUse" x="0" y="0" width="64" height="39">
<path d="M64 0H0.0236816V38.9881H64V0Z" fill="white"/>
</mask>
<g mask="url(#mask0_4141_646)">
<path d="M44.1827 0.0237593H45.4738C46.1609 0.0475253 46.8479 0.118823 47.5349 0.237653C48.2456 0.320834 48.9208 0.534728 49.6197 0.677324C50.2119 0.831803 50.7924 1.02193 51.3609 1.24771C52.2612 1.59232 53.1259 1.99634 53.9669 2.47166C54.5947 2.82815 55.2107 3.2084 55.8029 3.63619C56.407 4.06398 56.9638 4.5393 57.5323 5.00274C58.1127 5.43052 58.6221 5.95338 59.0248 6.54753C59.0722 6.60694 59.1196 6.66636 59.1788 6.72577C59.8777 7.45063 60.4818 8.25868 61.003 9.11425C61.4768 9.87477 61.9151 10.6472 62.3178 11.4552C62.6732 12.2038 62.9693 12.9881 63.2062 13.7962C63.4194 14.4022 63.5853 15.0201 63.7037 15.6618C63.7629 16.0896 63.8222 16.5292 63.8932 16.957C64.0235 18.3711 64.0591 19.7971 63.988 21.223C63.988 21.6983 63.9169 22.1737 63.7748 22.6371C63.6919 22.9223 63.6919 23.2313 63.6326 23.5283C63.4431 24.3958 63.1944 25.2514 62.8982 26.0832C62.6258 26.8675 62.2941 27.6161 61.9032 28.3409C61.465 29.149 60.9793 29.9452 60.4463 30.6938C59.5223 31.9296 58.4681 33.0823 57.3191 34.1161C56.6795 34.6865 55.9924 35.1974 55.2699 35.6609C54.2986 36.3144 53.268 36.8729 52.1901 37.3483C51.4912 37.6453 50.7805 37.8949 50.058 38.1088C49.5131 38.2751 48.9445 38.4296 48.3996 38.5603C48.0798 38.6435 47.7126 38.6792 47.3928 38.7623C46.7887 38.798 46.1964 38.8693 45.6041 38.9762C45.462 39.0119 45.308 39.0119 45.1659 39C44.6684 39 44.1709 38.9762 43.6734 39C43.01 39 42.3585 38.9525 41.707 38.8217C40.7594 38.7148 39.8355 38.5128 38.9234 38.2395C37.9521 37.9424 37.0163 37.5978 36.0687 37.2294C35.2395 36.8492 34.434 36.4333 33.6523 35.9579C33.2732 35.7559 33.2851 35.4826 33.7352 35.1974C34.2682 34.8172 34.7539 34.3775 35.1803 33.8784C36.0332 32.9991 36.8031 32.0366 37.4783 31.0146C38.0705 30.1353 38.6036 29.2084 39.0537 28.2578C39.4328 27.4616 39.7644 26.6536 40.0369 25.8099C40.2145 25.2632 40.3567 24.6929 40.4751 24.1344C40.6291 23.3263 40.7476 22.5183 40.8779 21.7102C41.0792 20.3912 40.9134 19.0722 40.9845 17.7532C40.7239 17.3135 40.8897 16.8144 40.7594 16.3391C40.6647 15.9826 40.641 15.5667 40.5581 15.1865C40.4514 14.521 40.2856 13.8556 40.0605 13.2139C39.7881 12.5366 39.5986 11.8236 39.2788 11.1581C38.8879 10.362 38.5325 9.54204 38.0705 8.79341C37.6796 8.15173 37.2295 7.53381 36.7794 6.92778C36.2108 6.19104 35.5949 5.50182 34.9197 4.86014C34.4577 4.34917 33.9365 3.89762 33.3917 3.48171C33.2614 3.39853 33.2377 3.31535 33.3561 3.18464C33.6167 2.95886 33.9129 2.76873 34.2327 2.63802C34.7183 2.34094 35.2158 2.06764 35.737 1.81809C36.578 1.43784 37.4427 1.117 38.3193 0.831803C38.9234 0.665441 39.5394 0.510962 40.1553 0.368366C41.4938 0.0831743 42.856 -0.0356557 44.2182 0.0237593" fill="#171717"/>
<path d="M44.1827 0.0237593H45.4738C46.1609 0.0475253 46.8479 0.118823 47.5349 0.237653C48.2456 0.320834 48.9208 0.534728 49.6197 0.677324C50.2119 0.831803 50.7924 1.02193 51.3609 1.24771C52.2612 1.59232 53.1259 1.99634 53.9669 2.47166C54.5947 2.82815 55.2107 3.2084 55.8029 3.63619C56.407 4.06398 56.9638 4.5393 57.5323 5.00274C58.1127 5.43052 58.6221 5.95338 59.0248 6.54753C59.0722 6.60694 59.1196 6.66636 59.1788 6.72577C59.8777 7.45063 60.4818 8.25868 61.003 9.11425C61.4768 9.87477 61.9151 10.6472 62.3178 11.4552C62.6732 12.2038 62.9693 12.9881 63.2062 13.7962C63.4194 14.4022 63.5853 15.0201 63.7037 15.6618C63.7629 16.0896 63.8222 16.5292 63.8932 16.957C64.0235 18.3711 64.0591 19.7971 63.988 21.223C63.988 21.6983 63.9169 22.1737 63.7748 22.6371C63.6919 22.9223 63.6919 23.2313 63.6326 23.5283C63.4431 24.3958 63.1944 25.2514 62.8982 26.0832C62.6258 26.8675 62.2941 27.6161 61.9032 28.3409C61.465 29.149 60.9793 29.9452 60.4463 30.6938C59.5223 31.9296 58.4681 33.0823 57.3191 34.1161C56.6795 34.6865 55.9924 35.1974 55.2699 35.6609C54.2986 36.3144 53.268 36.8729 52.1901 37.3483C51.4912 37.6453 50.7805 37.8949 50.058 38.1088C49.5131 38.2751 48.9445 38.4296 48.3996 38.5603C48.0798 38.6435 47.7126 38.6792 47.3928 38.7623C46.7887 38.798 46.1964 38.8693 45.6041 38.9762C45.462 39.0119 45.308 39.0119 45.1659 39C44.6684 39 44.1709 38.9762 43.6734 39C43.01 39 42.3585 38.9525 41.707 38.8217C40.7594 38.7148 39.8355 38.5128 38.9234 38.2395C37.9521 37.9424 37.0163 37.5978 36.0687 37.2294C35.2395 36.8492 34.434 36.4333 33.6523 35.9579C33.2732 35.7559 33.2851 35.4826 33.7352 35.1974C34.2682 34.8172 34.7539 34.3775 35.1803 33.8784C36.0332 32.9991 36.8031 32.0366 37.4783 31.0146C38.0705 30.1353 38.6036 29.2084 39.0537 28.2578C39.4328 27.4616 39.7644 26.6536 40.0369 25.8099C40.2145 25.2632 40.3567 24.6929 40.4751 24.1344C40.6291 23.3263 40.7476 22.5183 40.8779 21.7102C41.0792 20.3912 40.9134 19.0722 40.9845 17.7532C40.7239 17.3135 40.8897 16.8144 40.7594 16.3391C40.6647 15.9826 40.641 15.5667 40.5581 15.1865C40.4514 14.521 40.2856 13.8556 40.0605 13.2139C39.7881 12.5366 39.5986 11.8236 39.2788 11.1581C38.8879 10.362 38.5325 9.54204 38.0705 8.79341C37.6796 8.15173 37.2295 7.53381 36.7794 6.92778C36.2108 6.19104 35.5949 5.50182 34.9197 4.86014C34.4577 4.34917 33.9365 3.89762 33.3917 3.48171C33.2614 3.39853 33.2377 3.31535 33.3561 3.18464C33.6167 2.95886 33.9129 2.76873 34.2327 2.63802C34.7183 2.34094 35.2158 2.06764 35.737 1.81809C36.578 1.43784 37.4427 1.117 38.3193 0.831803C38.9234 0.665441 39.5394 0.510962 40.1553 0.368366C41.4938 0.0831743 42.856 -0.0356557 44.2182 0.0237593" fill="black" fill-opacity="0.2"/>
<path d="M19.8526 0.011883H21.1793C22.0677 0.047532 22.9561 0.154479 23.8208 0.35649C24.5552 0.499086 25.2896 0.689214 26.0003 0.926874C26.5452 1.08135 27.0782 1.28336 27.5876 1.52102C27.9666 1.71115 28.3812 1.8181 28.7484 2.03199C29.3288 2.36472 29.9211 2.67367 30.5015 3.0064C30.8332 3.19653 30.8095 3.31536 30.5015 3.51737C30.312 3.65996 30.1461 3.82633 29.9803 4.00457C29.3644 4.6106 28.6892 5.19287 28.1324 5.84644C27.6231 6.44059 27.1374 7.07038 26.6873 7.72395C25.9529 8.82907 25.3014 9.9936 24.7447 11.2057C24.4012 12.0137 24.0932 12.8336 23.8445 13.6773C23.6312 14.3784 23.4654 15.0914 23.3588 15.8163C23.2759 16.2678 23.2404 16.755 23.1693 17.2066C23.039 18.4899 23.0034 19.7733 23.0864 21.0567C23.0745 21.5795 23.1456 22.1024 23.2996 22.6015C23.3588 22.8867 23.4062 23.1718 23.4299 23.457C23.572 24.1225 23.7615 24.7642 23.9392 25.4177C24.3301 26.7843 24.875 28.0914 25.5502 29.3391C25.9055 30.0165 26.3201 30.67 26.7702 31.2879C27.2322 31.9177 27.7297 32.5119 28.2154 33.1298C28.7484 33.7952 29.3999 34.33 29.9685 34.9479C30.0988 35.0905 30.312 35.138 30.4541 35.2925C30.7266 35.5896 30.7266 35.7084 30.383 35.9223C30.0395 36.1362 29.7079 36.2669 29.3999 36.4808C28.7602 36.8729 28.0851 37.1938 27.3862 37.4552C26.7229 37.7404 26.024 37.9305 25.3488 38.1801C24.6381 38.394 23.9155 38.5603 23.1811 38.6673C22.7665 38.7505 22.3283 38.798 21.89 38.8574C20.8595 38.9881 19.8052 39.0238 18.7628 38.9406C18.135 38.9168 17.4954 38.8455 16.8794 38.7386C16.5359 38.6673 16.1806 38.6197 15.8252 38.5603C15.2448 38.4653 14.6881 38.2751 14.1195 38.1325C13.3851 37.9424 12.6744 37.6929 11.9873 37.3839C11.2648 37.0868 10.5659 36.7304 9.89073 36.3382C9.35769 36.0174 8.82466 35.6846 8.31531 35.34C8.06656 35.1737 7.81781 35.0073 7.5809 34.8172C6.79911 34.1755 6.05286 33.4863 5.35399 32.7614C4.73804 32.1197 4.16946 31.4305 3.63643 30.7176C3.09154 30.0046 2.60589 29.2559 2.17946 28.4717C1.78856 27.723 1.44505 26.9506 1.14892 26.1545C0.912015 25.5841 0.781717 24.9899 0.556656 24.4196C0.414513 23.9799 0.319751 23.5165 0.248679 23.053C0.0236191 21.2943 -0.0592978 19.5119 0.0473097 17.7294C0.0710002 17.2185 0.142072 16.7075 0.248679 16.2084C0.331596 15.745 0.438204 15.2934 0.532966 14.8419C0.686954 14.1645 0.888324 13.511 1.12523 12.8574C1.49243 11.8236 1.9544 10.8254 2.52297 9.88665C2.90202 9.24497 3.30476 8.61517 3.75488 8.02102C4.50113 6.99909 5.34215 6.04845 6.27792 5.20475C6.87019 4.6819 7.47429 4.18282 8.11394 3.7075C9.32216 2.85192 10.6133 2.11517 11.9755 1.50914C12.5085 1.2596 13.089 1.117 13.6338 0.903108C14.1787 0.689214 14.7828 0.582267 15.3632 0.415905C15.6594 0.320841 15.9674 0.261426 16.2753 0.225777C16.7136 0.178245 17.1519 0.11883 17.5902 0.023766C17.6968 0 17.8152 0 17.9218 0H19.8526" fill="#171717"/>
<path d="M19.8526 0.011883H21.1793C22.0677 0.047532 22.9561 0.154479 23.8208 0.35649C24.5552 0.499086 25.2896 0.689214 26.0003 0.926874C26.5452 1.08135 27.0782 1.28336 27.5876 1.52102C27.9666 1.71115 28.3812 1.8181 28.7484 2.03199C29.3288 2.36472 29.9211 2.67367 30.5015 3.0064C30.8332 3.19653 30.8095 3.31536 30.5015 3.51737C30.312 3.65996 30.1461 3.82633 29.9803 4.00457C29.3644 4.6106 28.6892 5.19287 28.1324 5.84644C27.6231 6.44059 27.1374 7.07038 26.6873 7.72395C25.9529 8.82907 25.3014 9.9936 24.7447 11.2057C24.4012 12.0137 24.0932 12.8336 23.8445 13.6773C23.6312 14.3784 23.4654 15.0914 23.3588 15.8163C23.2759 16.2678 23.2404 16.755 23.1693 17.2066C23.039 18.4899 23.0034 19.7733 23.0864 21.0567C23.0745 21.5795 23.1456 22.1024 23.2996 22.6015C23.3588 22.8867 23.4062 23.1718 23.4299 23.457C23.572 24.1225 23.7615 24.7642 23.9392 25.4177C24.3301 26.7843 24.875 28.0914 25.5502 29.3391C25.9055 30.0165 26.3201 30.67 26.7702 31.2879C27.2322 31.9177 27.7297 32.5119 28.2154 33.1298C28.7484 33.7952 29.3999 34.33 29.9685 34.9479C30.0988 35.0905 30.312 35.138 30.4541 35.2925C30.7266 35.5896 30.7266 35.7084 30.383 35.9223C30.0395 36.1362 29.7079 36.2669 29.3999 36.4808C28.7602 36.8729 28.0851 37.1938 27.3862 37.4552C26.7229 37.7404 26.024 37.9305 25.3488 38.1801C24.6381 38.394 23.9155 38.5603 23.1811 38.6673C22.7665 38.7505 22.3283 38.798 21.89 38.8574C20.8595 38.9881 19.8052 39.0238 18.7628 38.9406C18.135 38.9168 17.4954 38.8455 16.8794 38.7386C16.5359 38.6673 16.1806 38.6197 15.8252 38.5603C15.2448 38.4653 14.6881 38.2751 14.1195 38.1325C13.3851 37.9424 12.6744 37.6929 11.9873 37.3839C11.2648 37.0868 10.5659 36.7304 9.89073 36.3382C9.35769 36.0174 8.82466 35.6846 8.31531 35.34C8.06656 35.1737 7.81781 35.0073 7.5809 34.8172C6.79911 34.1755 6.05286 33.4863 5.35399 32.7614C4.73804 32.1197 4.16946 31.4305 3.63643 30.7176C3.09154 30.0046 2.60589 29.2559 2.17946 28.4717C1.78856 27.723 1.44505 26.9506 1.14892 26.1545C0.912015 25.5841 0.781717 24.9899 0.556656 24.4196C0.414513 23.9799 0.319751 23.5165 0.248679 23.053C0.0236191 21.2943 -0.0592978 19.5119 0.0473097 17.7294C0.0710002 17.2185 0.142072 16.7075 0.248679 16.2084C0.331596 15.745 0.438204 15.2934 0.532966 14.8419C0.686954 14.1645 0.888324 13.511 1.12523 12.8574C1.49243 11.8236 1.9544 10.8254 2.52297 9.88665C2.90202 9.24497 3.30476 8.61517 3.75488 8.02102C4.50113 6.99909 5.34215 6.04845 6.27792 5.20475C6.87019 4.6819 7.47429 4.18282 8.11394 3.7075C9.32216 2.85192 10.6133 2.11517 11.9755 1.50914C12.5085 1.2596 13.089 1.117 13.6338 0.903108C14.1787 0.689214 14.7828 0.582267 15.3632 0.415905C15.6594 0.320841 15.9674 0.261426 16.2753 0.225777C16.7136 0.178245 17.1519 0.11883 17.5902 0.023766C17.6968 0 17.8152 0 17.9218 0H19.8526" fill="black" fill-opacity="0.2"/>
<path d="M24.3776 19.4881C24.3539 19.1673 24.3539 18.8583 24.3776 18.5375C24.4842 17.9314 24.4486 17.3135 24.6026 16.7194C24.6856 16.3985 24.6619 16.0539 24.7211 15.7212C24.8395 15.0914 25.0291 14.4973 25.1949 13.8912C25.3963 13.1782 25.6569 12.4771 25.953 11.7998C26.2491 11.1106 26.5926 10.4452 26.9835 9.80347C27.3152 9.23309 27.6943 8.69835 28.0496 8.15174C28.1918 7.93784 28.3576 7.73583 28.5234 7.5457C29.3881 6.52376 30.3239 5.56124 31.3189 4.65813C31.4729 4.51554 31.698 4.42047 31.8519 4.25411C31.9704 4.1234 32.0652 4.1947 32.1718 4.27788C32.764 4.7532 33.3208 5.25228 33.8538 5.78702C34.4224 6.32175 34.9554 6.90402 35.4411 7.52194C35.9741 8.18738 36.4598 8.90036 36.898 9.63711C37.2771 10.2669 37.6087 10.9086 37.9167 11.5622C38.2958 12.3702 38.6038 13.202 38.8407 14.0576C39.0539 14.7112 39.2197 15.3766 39.3382 16.0539C39.3974 16.4936 39.4685 16.9452 39.5158 17.3729C39.6461 18.4068 39.6817 19.4406 39.6106 20.4744C39.6106 21.0804 39.5277 21.6746 39.3855 22.2569C39.3263 22.5183 39.2908 22.7797 39.2671 23.053C39.042 24.277 38.6985 25.4771 38.2129 26.6298C38.0233 27.1526 37.7983 27.6636 37.5377 28.1508C37.1349 28.9351 36.673 29.6837 36.1636 30.4086C35.6661 31.074 35.1686 31.7157 34.6119 32.3336C34.2921 32.6901 33.9841 33.0585 33.6287 33.3912C33.1905 33.8071 32.6811 34.1517 32.2665 34.5914C32.1244 34.7459 31.8875 34.7696 31.7216 34.6271C31.7098 34.6271 31.698 34.6033 31.6861 34.5914C30.9635 33.9854 30.2647 33.3437 29.6132 32.6664C29.1631 32.0841 28.63 31.5731 28.2154 30.9671C27.8246 30.3967 27.3863 29.862 27.0428 29.2559C26.6045 28.4954 26.2136 27.7111 25.8582 26.9031C25.5621 26.1901 25.3134 25.4771 25.1001 24.7404C24.9106 24.0987 24.7685 23.457 24.65 22.8035C24.5671 22.34 24.5079 21.8528 24.4486 21.3775C24.3776 20.7477 24.3539 20.1298 24.342 19.5" fill="#171717"/>
<path d="M24.3776 19.4881C24.3539 19.1673 24.3539 18.8583 24.3776 18.5375C24.4842 17.9314 24.4486 17.3135 24.6026 16.7194C24.6856 16.3985 24.6619 16.0539 24.7211 15.7212C24.8395 15.0914 25.0291 14.4973 25.1949 13.8912C25.3963 13.1782 25.6569 12.4771 25.953 11.7998C26.2491 11.1106 26.5926 10.4452 26.9835 9.80347C27.3152 9.23309 27.6943 8.69835 28.0496 8.15174C28.1918 7.93784 28.3576 7.73583 28.5234 7.5457C29.3881 6.52376 30.3239 5.56124 31.3189 4.65813C31.4729 4.51554 31.698 4.42047 31.8519 4.25411C31.9704 4.1234 32.0652 4.1947 32.1718 4.27788C32.764 4.7532 33.3208 5.25228 33.8538 5.78702C34.4224 6.32175 34.9554 6.90402 35.4411 7.52194C35.9741 8.18738 36.4598 8.90036 36.898 9.63711C37.2771 10.2669 37.6087 10.9086 37.9167 11.5622C38.2958 12.3702 38.6038 13.202 38.8407 14.0576C39.0539 14.7112 39.2197 15.3766 39.3382 16.0539C39.3974 16.4936 39.4685 16.9452 39.5158 17.3729C39.6461 18.4068 39.6817 19.4406 39.6106 20.4744C39.6106 21.0804 39.5277 21.6746 39.3855 22.2569C39.3263 22.5183 39.2908 22.7797 39.2671 23.053C39.042 24.277 38.6985 25.4771 38.2129 26.6298C38.0233 27.1526 37.7983 27.6636 37.5377 28.1508C37.1349 28.9351 36.673 29.6837 36.1636 30.4086C35.6661 31.074 35.1686 31.7157 34.6119 32.3336C34.2921 32.6901 33.9841 33.0585 33.6287 33.3912C33.1905 33.8071 32.6811 34.1517 32.2665 34.5914C32.1244 34.7459 31.8875 34.7696 31.7216 34.6271C31.7098 34.6271 31.698 34.6033 31.6861 34.5914C30.9635 33.9854 30.2647 33.3437 29.6132 32.6664C29.1631 32.0841 28.63 31.5731 28.2154 30.9671C27.8246 30.3967 27.3863 29.862 27.0428 29.2559C26.6045 28.4954 26.2136 27.7111 25.8582 26.9031C25.5621 26.1901 25.3134 25.4771 25.1001 24.7404C24.9106 24.0987 24.7685 23.457 24.65 22.8035C24.5671 22.34 24.5079 21.8528 24.4486 21.3775C24.3776 20.7477 24.3539 20.1298 24.342 19.5" fill="black" fill-opacity="0.2"/>
</g>
</g>
<defs>
<clipPath id="clip0_4141_646">
<rect width="64" height="39" fill="white"/>
</clipPath>
</defs>
</svg>
